M48
;DRILL file {KiCad (5.0.2)-1} date 8/4/2019 6:28:19 PM
;FORMAT={3:3/ absolute / metric / suppress leading zeros}
FMAT,2
METRIC,TZ
T1C0.400
T2C0.750
T3C0.762
T4C0.800
T5C0.900
T6C1.000
T7C1.100
T8C1.500
T9C2.000
T10C5.300
T11C10.000
%
G90
G05
T1
X89642Y-110595
X94292Y-125481
X96193Y-110677
X96463Y-131101
X99358Y-110653
X99407Y-131128
X101417Y-131118
X101707Y-125491
X103279Y-133055
X103368Y-110641
X103407Y-131111
X106465Y-125499
X108671Y-134657
X109157Y-116302
X110750Y-125507
X110907Y-131153
X110931Y-104654
X112966Y-102837
X113053Y-104255
X114526Y-103805
X115435Y-103298
X116106Y-131142
X116923Y-104498
X118753Y-131125
X120878Y-104643
X121150Y-131072
X121975Y-132949
X122517Y-110652
X131494Y-116347
X134200Y-128529
X134276Y-115342
X137168Y-107471
X138164Y-127453
X139160Y-140648
X140193Y-115204
X140868Y-106105
X149162Y-109810
X153675Y-128060
X153725Y-109844
X155648Y-125245
X156721Y-107132
X158312Y-109835
X158502Y-107071
X158796Y-104020
X160856Y-125241
X162887Y-109845
X165052Y-125239
X166526Y-104182
X166667Y-109844
X168103Y-103955
X168690Y-124468
X169468Y-102941
X170923Y-109684
X171476Y-102804
X172248Y-103446
X174227Y-125253
X176975Y-109867
X177527Y-104176
X178840Y-122134
X180836Y-104210
X181404Y-109866
X182221Y-104111
X192695Y-111196
X195187Y-125868
X197295Y-111196
X199752Y-125860
X201895Y-111203
X205129Y-125866
X206495Y-113653
X208871Y-105582
X209419Y-124773
X209583Y-97558
X209632Y-131508
X210844Y-131480
X210895Y-113777
X212978Y-105484
X213439Y-125855
X213587Y-131520
X214371Y-108398
X215695Y-111223
X216116Y-104607
X217640Y-104428
X217976Y-103419
X218807Y-131496
X219009Y-121190
X220410Y-111240
X220450Y-105070
X221269Y-131472
X222568Y-104622
X223952Y-131342
X225231Y-133583
X225799Y-111226
X238867Y-112345
X238877Y-109636
X239057Y-115243
X241853Y-125970
X241856Y-121160
X241926Y-119715
X244514Y-108882
X245186Y-132116
X245510Y-108099
X246511Y-141017
X247534Y-121295
X247994Y-105080
X249598Y-108902
X251935Y-126540
X256000Y-111896
X259257Y-126251
X261167Y-110876
X263857Y-126248
X265767Y-110884
X268457Y-126226
X270367Y-110916
X273293Y-126217
X274967Y-110884
X275511Y-105251
X276523Y-105265
X276994Y-104001
X277478Y-126211
X277635Y-105190
X278493Y-104430
X279567Y-110911
X279606Y-104598
X282608Y-126216
X284241Y-110884
X284979Y-108146
X285110Y-105244
X285569Y-134898
X286495Y-131900
X288297Y-110927
X297723Y-114796
X300370Y-119531
X300477Y-116480
X300758Y-128360
X303275Y-111234
X303466Y-122074
X303606Y-126693
X303690Y-114398
X303718Y-119924
X305299Y-106449
X310739Y-109953
X314675Y-109857
X320741Y-133132
X320872Y-131344
X321600Y-132110
X322018Y-134605
X322044Y-125863
X323697Y-133211
X324081Y-135636
X326178Y-135536
X328509Y-125693
X331953Y-98624
X332372Y-131321
X334823Y-131325
X335816Y-104623
X336972Y-131319
X337687Y-104993
X338887Y-105549
X339665Y-134284
X340220Y-133420
X341572Y-125704
X341572Y-131353
X341674Y-104808
X343446Y-103818
X343832Y-111204
X345084Y-132695
X345828Y-131344
X346045Y-105574
X346943Y-125672
X348960Y-111213
X357711Y-116504
X360373Y-125646
X362522Y-115470
X364956Y-131258
X364973Y-125610
X367206Y-131278
X367225Y-115314
X368158Y-125647
X368314Y-107751
X368747Y-131258
X369356Y-132613
X371220Y-131298
X372284Y-133605
X372359Y-134859
X374233Y-97071
X376818Y-131231
X377044Y-105196
X377426Y-94492
X379740Y-131246
X379891Y-107697
X381073Y-131245
X381120Y-103790
X381229Y-104791
X382439Y-104769
X383592Y-131227
X383945Y-104445
X385146Y-135587
X385350Y-110872
X385534Y-103021
X385727Y-131226
X387973Y-125612
X389131Y-131062
X390225Y-105209
X390225Y-110850
X391478Y-134073
X403280Y-116309
X403325Y-123972
X403358Y-127683
X403364Y-117852
X403519Y-112819
X406076Y-130247
X406180Y-121654
X406217Y-120545
X409682Y-106930
X412340Y-114379
X414869Y-105660
X415942Y-108083
X424904Y-111393
X425765Y-132359
X427863Y-126432
X429506Y-111391
X431754Y-142074
X432631Y-125031
X434478Y-117491
X437537Y-126430
X439103Y-111547
X441502Y-108867
X445461Y-105097
X446461Y-104647
X447462Y-104647
X449126Y-103328
X451337Y-126434
X451364Y-105748
X453664Y-105954
X453677Y-117576
X455431Y-105939
X458264Y-111572
T2
X317075Y-112530
X317075Y-113800
X317075Y-115070
X363750Y-117801
X363750Y-119071
X363750Y-120341
X368550Y-117801
X368550Y-119071
X368550Y-120341
X286390Y-118844
X286390Y-120114
X286390Y-121384
X262390Y-118844
X262390Y-120114
X262390Y-121384
X100602Y-112072
X100602Y-113342
X100602Y-114612
X153887Y-112135
X153887Y-113405
X153887Y-114675
X450050Y-113041
X450050Y-114311
X450050Y-115581
X163487Y-117650
X163487Y-118920
X163487Y-120190
X459650Y-118566
X459650Y-119836
X459650Y-121106
X203251Y-113052
X203251Y-114322
X203251Y-115592
X124602Y-117597
X124602Y-118867
X124602Y-120137
X208051Y-118567
X208051Y-119837
X208051Y-121107
X317075Y-118055
X317075Y-119325
X317075Y-120595
X91002Y-112072
X91002Y-113342
X91002Y-114612
X321875Y-112530
X321875Y-113800
X321875Y-115070
X331475Y-118055
X331475Y-119325
X331475Y-120595
X440450Y-118566
X440450Y-119836
X440450Y-121106
X378150Y-112276
X378150Y-113546
X378150Y-114816
X430850Y-113041
X430850Y-114311
X430850Y-115581
X257590Y-113319
X257590Y-114589
X257590Y-115859
X291190Y-118844
X291190Y-120114
X291190Y-121384
X262390Y-113319
X262390Y-114589
X262390Y-115859
X435650Y-118566
X435650Y-119836
X435650Y-121106
X110202Y-112072
X110202Y-113342
X110202Y-114612
X95802Y-112072
X95802Y-113342
X95802Y-114612
X454850Y-118566
X454850Y-119836
X454850Y-121106
X149087Y-117650
X149087Y-118920
X149087Y-120190
X217651Y-113052
X217651Y-114322
X217651Y-115592
X341075Y-118055
X341075Y-119325
X341075Y-120595
X345875Y-112530
X345875Y-113800
X345875Y-115070
X276790Y-118844
X276790Y-120114
X276790Y-121384
X373350Y-112276
X373350Y-113546
X373350Y-114816
X435650Y-113041
X435650Y-114311
X435650Y-115581
X358950Y-117801
X358950Y-119071
X358950Y-120341
X212851Y-118567
X212851Y-119837
X212851Y-121107
X267190Y-113319
X267190Y-114589
X267190Y-115859
X271990Y-118844
X271990Y-120114
X271990Y-121384
X91002Y-117597
X91002Y-118867
X91002Y-120137
X119802Y-117597
X119802Y-118867
X119802Y-120137
X203251Y-118567
X203251Y-119837
X203251Y-121107
X454850Y-113041
X454850Y-114311
X454850Y-115581
X177887Y-112135
X177887Y-113405
X177887Y-114675
X115002Y-117597
X115002Y-118867
X115002Y-120137
X149087Y-112135
X149087Y-113405
X149087Y-114675
X326675Y-118055
X326675Y-119325
X326675Y-120595
X350700Y-118055
X350700Y-119325
X350700Y-120595
X341075Y-112530
X341075Y-113800
X341075Y-115070
X177887Y-117650
X177887Y-118920
X177887Y-120190
X378150Y-117801
X378150Y-119071
X378150Y-120341
X368550Y-112276
X368550Y-113546
X368550Y-114816
X382950Y-117801
X382950Y-119071
X382950Y-120341
X222451Y-118567
X222451Y-119837
X222451Y-121107
X281590Y-113324
X281590Y-114594
X281590Y-115864
X193651Y-113052
X193651Y-114322
X193651Y-115592
X110202Y-117597
X110202Y-118867
X110202Y-120137
X440450Y-113041
X440450Y-114311
X440450Y-115581
X426050Y-113041
X426050Y-114311
X426050Y-115581
X163487Y-112135
X163487Y-113405
X163487Y-114675
X182687Y-117650
X182687Y-118920
X182687Y-120190
X105402Y-117597
X105402Y-118867
X105402Y-120137
X198451Y-113052
X198451Y-114322
X198451Y-115592
X326675Y-112530
X326675Y-113800
X326675Y-115070
X336275Y-112530
X336275Y-113800
X336275Y-115070
X358950Y-112276
X358950Y-113546
X358950Y-114816
X363750Y-112276
X363750Y-113546
X363750Y-114816
X430850Y-118566
X430850Y-119836
X430850Y-121106
X281590Y-118844
X281590Y-120114
X281590Y-121384
X208051Y-113052
X208051Y-114322
X208051Y-115592
X257590Y-118844
X257590Y-120114
X257590Y-121384
X168287Y-117650
X168287Y-118920
X168287Y-120190
X445250Y-118566
X445250Y-119836
X445250Y-121106
X450050Y-118566
X450050Y-119836
X450050Y-121106
X173087Y-117650
X173087Y-118920
X173087Y-120190
X100602Y-117597
X100602Y-118867
X100602Y-120137
X173087Y-112135
X173087Y-113405
X173087Y-114675
X426050Y-118566
X426050Y-119836
X426050Y-121106
X168287Y-112135
X168287Y-113405
X168287Y-114675
X336275Y-118055
X336275Y-119325
X336275Y-120595
X321875Y-118055
X321875Y-119325
X321875Y-120595
X392550Y-117801
X392550Y-119071
X392550Y-120341
X387750Y-117801
X387750Y-119071
X387750Y-120341
X193651Y-118567
X193651Y-119837
X193651Y-121107
X276790Y-113324
X276790Y-114594
X276790Y-115864
X158687Y-117650
X158687Y-118920
X158687Y-120190
X95802Y-117597
X95802Y-118867
X95802Y-120137
X105402Y-112072
X105402Y-113342
X105402Y-114612
X445250Y-113041
X445250Y-114311
X445250Y-115581
X217651Y-118567
X217651Y-119837
X217651Y-121107
X115002Y-112072
X115002Y-113342
X115002Y-114612
X227251Y-118567
X227251Y-119837
X227251Y-121107
X222451Y-113052
X222451Y-114322
X222451Y-115592
X271990Y-113324
X271990Y-114594
X271990Y-115864
X373350Y-117801
X373350Y-119071
X373350Y-120341
X382950Y-112276
X382950Y-113546
X382950Y-114816
X387750Y-112276
X387750Y-113546
X387750Y-114816
X286390Y-113324
X286390Y-114594
X286390Y-115864
X267190Y-118844
X267190Y-120114
X267190Y-121384
X153887Y-117650
X153887Y-118920
X153887Y-120190
X158687Y-112135
X158687Y-113405
X158687Y-114675
X119802Y-112072
X119802Y-113342
X119802Y-114612
X198451Y-118567
X198451Y-119837
X198451Y-121107
X212851Y-113052
X212851Y-114322
X212851Y-115592
X331475Y-112530
X331475Y-113800
X331475Y-115070
X345875Y-118055
X345875Y-119325
X345875Y-120595
T3
X58790Y-98330
X58790Y-100870
X58790Y-103410
X58790Y-105950
X58790Y-108490
X58790Y-111030
X58790Y-113570
X58790Y-116110
X58790Y-118650
X58790Y-121190
X58790Y-123730
X58790Y-126270
X58790Y-128810
X58790Y-131350
X58790Y-133890
X81650Y-98330
X81650Y-100870
X81650Y-103410
X81650Y-105950
X81650Y-108490
X81650Y-111030
X81650Y-113570
X81650Y-116110
X81650Y-118650
X81650Y-121190
X81650Y-123730
X81650Y-126270
X81650Y-128810
X81650Y-131350
X81650Y-133890
T4
X130875Y-104340
X133415Y-101800
X135955Y-104340
X296784Y-95583
X300284Y-95583
X411531Y-95603
X415031Y-95603
X265180Y-92720
X265180Y-100340
X267720Y-92720
X267720Y-100340
X270260Y-92720
X270260Y-100340
X272800Y-92720
X272800Y-100340
X275340Y-92720
X275340Y-100340
X277880Y-92720
X277880Y-100340
X280420Y-92720
X280420Y-100340
X282960Y-92720
X282960Y-100340
X285500Y-92720
X285500Y-100340
X288040Y-92720
X288040Y-100340
X158013Y-92005
X158013Y-99625
X160553Y-92005
X160553Y-99625
X163093Y-92005
X163093Y-99625
X165633Y-92005
X165633Y-99625
X168173Y-92005
X168173Y-99625
X170713Y-92005
X170713Y-99625
X173253Y-92005
X173253Y-99625
X175793Y-92005
X175793Y-99625
X178333Y-92005
X178333Y-99625
X180873Y-92005
X180873Y-99625
X247396Y-95504
X250896Y-95504
X203750Y-92730
X203750Y-100350
X206290Y-92730
X206290Y-100350
X208830Y-92730
X208830Y-100350
X211370Y-92730
X211370Y-100350
X213910Y-92730
X213910Y-100350
X216450Y-92730
X216450Y-100350
X218990Y-92730
X218990Y-100350
X221530Y-92730
X221530Y-100350
X224070Y-92730
X224070Y-100350
X226610Y-92730
X226610Y-100350
X402684Y-95603
X406184Y-95603
X238544Y-95493
X242044Y-95493
X305613Y-95580
X309113Y-95580
X322600Y-92710
X322600Y-100330
X325140Y-92710
X325140Y-100330
X327680Y-92710
X327680Y-100330
X330220Y-92710
X330220Y-100330
X332760Y-92710
X332760Y-100330
X335300Y-92710
X335300Y-100330
X337840Y-92710
X337840Y-100330
X340380Y-92710
X340380Y-100330
X342920Y-92710
X342920Y-100330
X345460Y-92710
X345460Y-100330
X99232Y-92044
X99232Y-99664
X101772Y-92044
X101772Y-99664
X104312Y-92044
X104312Y-99664
X106852Y-92044
X106852Y-99664
X109392Y-92044
X109392Y-99664
X111932Y-92044
X111932Y-99664
X114472Y-92044
X114472Y-99664
X117012Y-92044
X117012Y-99664
X119552Y-92044
X119552Y-99664
X122092Y-92044
X122092Y-99664
X140970Y-95520
X144470Y-95520
X429450Y-92820
X429450Y-100440
X431990Y-92820
X431990Y-100440
X434530Y-92820
X434530Y-100440
X437070Y-92820
X437070Y-100440
X439610Y-92820
X439610Y-100440
X442150Y-92820
X442150Y-100440
X444690Y-92820
X444690Y-100440
X447230Y-92820
X447230Y-100440
X449770Y-92820
X449770Y-100440
X452310Y-92820
X452310Y-100440
X367000Y-92218
X367000Y-99838
X369540Y-92218
X369540Y-99838
X372080Y-92218
X372080Y-99838
X374620Y-92218
X374620Y-99838
X377160Y-92218
X377160Y-99838
X379700Y-92218
X379700Y-99838
X382240Y-92218
X382240Y-99838
X384780Y-92218
X384780Y-99838
X387320Y-92218
X387320Y-99838
X389860Y-92218
X389860Y-99838
X238005Y-104190
X240545Y-101650
X243085Y-104190
X402545Y-104395
X405085Y-101855
X407625Y-104395
X132119Y-95521
X135619Y-95521
X297108Y-104759
X299648Y-102219
X302188Y-104759
T5
X45568Y-136195
X48108Y-136195
X50648Y-136195
T7
X411590Y-128170
X414130Y-128170
X416670Y-128170
X306353Y-129234
X308893Y-129234
X311433Y-129234
X139570Y-128865
X142110Y-128865
X144650Y-128865
X465260Y-96460
X467800Y-96460
X470340Y-96460
X247425Y-128615
X249965Y-128615
X252505Y-128615
T9
X146808Y-162817
X146910Y-156768
X148930Y-151003
X149017Y-168483
X152848Y-146333
X152855Y-173196
X158176Y-143343
X164033Y-142289
X164125Y-177348
X170064Y-176197
X170078Y-143383
X175385Y-146344
X175392Y-173207
X179223Y-151057
X179310Y-168537
X181330Y-162772
X181350Y-156820
X200963Y-162597
X201065Y-156548
X203085Y-150783
X203172Y-168263
X207003Y-146113
X207010Y-172976
X212331Y-143123
X218188Y-142069
X218280Y-177128
X224219Y-175977
X224233Y-143163
X229540Y-146124
X229547Y-172987
X233378Y-150837
X233465Y-168317
X235485Y-162552
X235505Y-156600
X417238Y-162677
X417340Y-156628
X419360Y-150863
X419447Y-168343
X423278Y-146193
X423285Y-173056
X428606Y-143203
X434463Y-142149
X434555Y-177208
X440494Y-176057
X440508Y-143243
X445815Y-146204
X445822Y-173067
X449653Y-150917
X449740Y-168397
X451760Y-162632
X451780Y-156680
X92468Y-162677
X92570Y-156628
X94590Y-150863
X94677Y-168343
X98508Y-146193
X98515Y-173056
X103836Y-143203
X109693Y-142149
X109785Y-177208
X115724Y-176057
X115738Y-143243
X121045Y-146204
X121052Y-173067
X124883Y-150917
X124970Y-168397
X126990Y-162632
X127010Y-156680
X309351Y-162663
X309453Y-156614
X311473Y-150849
X311560Y-168329
X315391Y-146179
X315398Y-173042
X320719Y-143189
X326576Y-142135
X326668Y-177194
X332607Y-176043
X332621Y-143229
X337928Y-146190
X337935Y-173053
X341766Y-150903
X341853Y-168383
X343873Y-162618
X343893Y-156666
X363453Y-162663
X363555Y-156614
X365575Y-150849
X365662Y-168329
X369493Y-146179
X369500Y-173042
X374821Y-143189
X380678Y-142135
X380770Y-177194
X386709Y-176043
X386723Y-143229
X392030Y-146190
X392037Y-173053
X395868Y-150903
X395955Y-168383
X397975Y-162618
X397995Y-156666
X255188Y-162672
X255290Y-156623
X257310Y-150858
X257397Y-168338
X261228Y-146188
X261235Y-173051
X266556Y-143198
X272413Y-142144
X272505Y-177203
X278444Y-176052
X278458Y-143238
X283765Y-146199
X283772Y-173062
X287603Y-150912
X287690Y-168392
X289710Y-162627
X289730Y-156675
T10
X495100Y-94775
X191155Y-182504
X191125Y-94975
X354025Y-94900
X47700Y-182550
X47625Y-94900
X353675Y-182925
X495125Y-182525
T11
X218275Y-159550
X109780Y-159630
X326663Y-159616
X380765Y-159616
X164120Y-159770
X434550Y-159630
X272500Y-159625
T6
X480050Y-99750G85X480050Y-101750
G05
X485750Y-97750G85X483750Y-97750
G05
X485750Y-103750G85X483750Y-103750
G05
T8
X490050Y-116100G85X485550Y-116100
G05
X490050Y-123085G85X485550Y-123085
G05
T0
M30
